<?xml version="1.0" encoding="utf-8"?>
<!-- Generator: Adobe Illustrator 16.0.0, SVG Export Plug-In . SVG Version: 6.00 Build 0)  -->
<!DOCTYPE svg PUBLIC "-//W3C//DTD SVG 1.1//EN" "http://www.w3.org/Graphics/SVG/1.1/DTD/svg11.dtd">
<svg version="1.1" id="Layer_1" xmlns="http://www.w3.org/2000/svg" xmlns:xlink="http://www.w3.org/1999/xlink" x="0px" y="0px"
	 width="611px" height="309.375px" viewBox="0 0 611 309.375" enable-background="new 0 0 611 309.375" xml:space="preserve">
<g>
	<path stroke="#000000" stroke-width="4" stroke-miterlimit="10" d="M506.538,198.465c-3.051,5.773-14.985,21.518-24.821,25.856
		c-19.021,7.369-25.545,7.003-31.028,5.172c-3.628-0.53-1.04-6.872,0-9.309c0.273-2.815,12.091-19.229,17.583-24.821
		C474.601,190.448,506.538,198.465,506.538,198.465L506.538,198.465z"/>
	<path stroke="#000000" stroke-width="4" stroke-miterlimit="10" d="M109.384,193.297c0,0-16.916,25.385-35.166,27.923
		c-18.517,2.714-40.841-3.851-48.609,0c-7.99,4.027-15.868,6.653-19.651,12.41c6.407,0.809,9.036-5.757,13.446,1.035
		c3.47,6.343,10.035,10.281,17.583,11.376c8.21,1.527,0.328,5.471,5.17,7.242c5.667,0.854,20.108,2.167,22.755,15.513
		c2.607,12.92,3.102,12.41,3.102,12.41s-4.433,18.892-12.411,22.755c6.662,1.389,36.866,4.015,42.404-23.786
		c4.968-27.35-9.478-35.229,4.137-43.439c12.648-7.549,75.036-32.521,109.633-41.372c18.623-5.286,45.981-9.558,79.638-9.31
		c42.41,1.317,91.922,18.151,144.797,13.446c43.347-4.747,176.921,3.426,163.412-7.238c13.509-7.723,3.88-34.842-14.481-55.85
		C567.83,116.258,457.527,88.68,441.384,84.699c-6.11-1.583-31.13-61.679-54.819-77.57c0,0-20.957-6.43-5.172,22.755
		c5.223,2.332,32.232,55.151-27.923,53.779C284.921,82.49,169.295,92.468,109.384,193.297L109.384,193.297z"/>
	<path fill="#FFFFFF" stroke="#000000" stroke-width="4" stroke-miterlimit="10" d="M336.922,191.226
		c-76.277-11.206-131.353,5.173-131.353,5.173c4.806-5.904,85.015-42.518,162.382-43.439c35.254-1.106,13.791,45.46,9.305,44.475
		C363.654,195.468,349.683,192.982,336.922,191.226L336.922,191.226z"/>
	<path fill="#FFFFFF" d="M501.37,151.924c26.379-17.995,60.728-14.915,58.952-1.031c-1.027,11.325-19.098,13.951-28.959,13.442
		C519.904,164.844,477.879,168.126,501.37,151.924L501.37,151.924z"/>
	<path fill="#FFFFFF" stroke="#000000" stroke-width="4" stroke-miterlimit="10" d="M426.902,199.5
		c17.873-11.737,16.573-34.656,77.569-25.856c12.402,1.46,120.13,17.385,89.98,22.755c-41.722,7.18-43.296,5.214-101.355,6.207
		L426.902,199.5L426.902,199.5z"/>
	<path stroke="#000000" stroke-width="4" stroke-miterlimit="10" d="M491.026,161.234c-3.296,3.61-24.308,10.176-33.095,10.344
		c-9.596-0.168-60.155,20.844-69.296,33.095c-9.242,12.697-5.96,17.292-4.138,20.685c2.117,3.173,54.643-5.357,66.19-13.446
		c10.778-7.672,31.786-18.176,36.2-23.786c4.777-6.207,11.376-14.48,11.376-14.48"/>
</g>
</svg>
